<svg version="1.1" id="Calque_1" xmlns="http://www.w3.org/2000/svg" xmlns:xlink="http://www.w3.org/1999/xlink" x="0px" y="0px"
	viewBox="0 0 125 125" style="enable-background:new 0 0 125 125;" xml:space="preserve">
  <style type="text/css">
    .st0{fill:#6624FF;}
  </style>
  <path class="st0" d="M98.1,0H26.9C12.1,0,0,12.1,0,26.9V98c0,14.9,12.1,27,26.9,27H98c14.9,0,26.9-12.1,26.9-26.9V26.9
    C125,12.1,112.9,0,98.1,0z M92.4,64.7l-10.8,5.4c-5,2.5-9.1,6.6-11.6,11.6l-5.3,10.7c-0.9,1.8-3.4,1.8-4.3,0L55,81.6
    c-2.5-5-6.6-9.1-11.6-11.6l-10.8-5.4c-1.8-0.9-1.8-3.5,0-4.3L43.3,55c5-2.5,9.1-6.6,11.6-11.6l5.4-10.8c0.9-1.8,3.5-1.8,4.3,0
    L70,43.3c2.5,5,6.6,9.1,11.6,11.6l10.7,5.4C94.2,61.2,94.2,63.8,92.4,64.7z"/>
</svg>