<svg width="32" height="32" viewBox="0 0 32 32" fill="none" xmlns="http://www.w3.org/2000/svg">
<path d="M25.1336 0H6.89188C3.10006 0 0 3.0976 0 6.8864V25.088C0 28.9024 3.10006 32 6.89188 32H25.108C28.9254 32 31.9998 28.9024 31.9998 25.1136V6.8864C32.0255 3.0976 28.9254 0 25.1336 0ZM23.6732 16.5632L20.9062 17.9456C19.6252 18.5856 18.5748 19.6352 17.9343 20.9152L16.5764 23.6544C16.3458 24.1152 15.7053 24.1152 15.4747 23.6544L14.0912 20.8896C13.4507 19.6096 12.4003 18.56 11.1192 17.92L8.35224 16.5376C7.89107 16.3072 7.89107 15.6416 8.35224 15.4368L11.0936 14.08C12.3746 13.44 13.4251 12.3904 14.0656 11.1104L15.4491 8.3456C15.6797 7.8848 16.3458 7.8848 16.5508 8.3456L17.9343 11.0848C18.5748 12.3648 19.6252 13.4144 20.9062 14.0544L23.6476 15.4368C24.1344 15.6672 24.1344 16.3328 23.6732 16.5632Z" fill="white"/>
</svg>
