<svg width="176" height="39" viewBox="0 0 176 39" fill="none" xmlns="http://www.w3.org/2000/svg">
  <path d="M31.4101 0H8.97586C4.31256 0 0.5 3.68601 0.5 8.19453V29.8537C0.5 34.3926 4.31256 38.0787 8.97586 38.0787H31.3786C36.0734 38.0787 39.8545 34.3926 39.8545 29.8841V8.19453C39.886 3.68601 36.0734 0 31.4101 0ZM29.6141 19.7095L26.2112 21.3545C24.6357 22.1161 23.3439 23.3651 22.5562 24.8882L20.8862 28.1477C20.6026 28.6961 19.8149 28.6961 19.5313 28.1477L17.8298 24.8577C17.0421 23.3346 15.7503 22.0856 14.1748 21.324L10.7719 19.679C10.2047 19.4049 10.2047 18.6128 10.7719 18.3691L14.1433 16.7546C15.7187 15.993 17.0106 14.7441 17.7983 13.2209L19.4998 9.93091C19.7834 9.38258 20.6026 9.38258 20.8547 9.93091L22.5562 13.1904C23.3439 14.7136 24.6357 15.9626 26.2112 16.7241L29.5826 18.3691C30.1813 18.6433 30.1813 19.4353 29.6141 19.7095Z" fill="#6624FF"/>
  <path d="M65.5974 3.1072H68.8743V7.40248H67.0152C64.8727 7.40248 64.1164 8.46868 64.1164 10.4183V11.6977H68.7482V16.0539H64.1164V34.5145H58.2873V16.0539H54.9789V11.6977H58.2873V9.77858C58.2873 4.93498 61.2491 3.1072 65.5974 3.1072Z" fill="#131313"/>
  <path d="M68.118 23.1213C68.118 14.8659 73.8842 11.2713 79.8393 11.2713C85.7315 11.2713 91.5606 14.8659 91.5606 23.1213C91.5606 31.3768 85.763 34.9714 79.8393 34.9714C73.8842 34.941 68.118 31.3463 68.118 23.1213ZM79.8393 30.2497C83.2423 30.2497 86.0466 28.0563 86.0466 23.0909C86.0466 18.1254 83.2423 15.9321 79.8393 15.9321C76.4049 15.9321 73.5691 18.1254 73.5691 23.0909C73.5691 28.0563 76.4049 30.2497 79.8393 30.2497Z" fill="#131313"/>
  <path d="M98.8076 34.5145H93.01V11.6977H98.8076V17.1506H98.9336C99.6899 14.0739 101.927 11.5454 105.929 11.5454C106.464 11.5454 107.094 11.5759 107.756 11.7587V16.5109C107.063 16.4195 106.527 16.389 105.929 16.389C102.022 16.389 98.8076 18.5824 98.8076 23.9438V34.5145Z" fill="#131313"/>
  <path d="M108.733 3.80785H114.53V21.9333L124.141 11.6977H130.568L120.895 21.4763L131.829 34.5145H125.401L117.398 25.0405L114.53 27.9345V34.5145H108.733V3.80785Z" fill="#131313"/>
  <path d="M129.718 23.0604C129.718 14.6527 135.106 11.2713 141.281 11.2713C147.363 11.2713 152.341 14.5308 152.341 22.8472C152.341 23.6392 152.31 24.0657 152.215 24.5531H135.2C135.578 28.8179 137.784 30.6457 141.502 30.6457C144.464 30.6457 146.165 29.549 146.859 27.3557H152.026C150.766 32.5344 146.638 34.941 141.376 34.941C135.232 34.941 129.718 31.59 129.718 23.0604ZM146.859 21.1413C146.732 17.9426 144.999 15.5665 141.187 15.5665C137.784 15.5665 135.641 17.3943 135.232 21.1413H146.859Z" fill="#131313"/>
  <path d="M152.877 23.0604C152.877 14.6527 158.265 11.2713 164.44 11.2713C170.522 11.2713 175.5 14.5308 175.5 22.8472C175.5 23.6392 175.468 24.0657 175.374 24.5531H158.359C158.737 28.8179 160.943 30.6457 164.661 30.6457C167.623 30.6457 169.324 29.549 170.017 27.3557H175.185C173.925 32.5344 169.797 34.941 164.535 34.941C158.422 34.941 152.877 31.59 152.877 23.0604ZM170.049 21.1413C169.923 17.9426 168.19 15.5665 164.377 15.5665C160.974 15.5665 158.832 17.3943 158.422 21.1413H170.049Z" fill="#131313"/>
</svg>
